<?xml version="1.0" encoding="UTF-8" standalone="no"?>
<svg
   xmlns:dc="http://purl.org/dc/elements/1.1/"
   xmlns:cc="http://creativecommons.org/ns#"
   xmlns:rdf="http://www.w3.org/1999/02/22-rdf-syntax-ns#"
   xmlns:svg="http://www.w3.org/2000/svg"
   xmlns="http://www.w3.org/2000/svg"
   xmlns:sodipodi="http://sodipodi.sourceforge.net/DTD/sodipodi-0.dtd"
   xmlns:inkscape="http://www.inkscape.org/namespaces/inkscape"
   width="24"
   height="24"
   viewBox="0 0 24 24"
   version="1.1"
   id="svg6"
   sodipodi:docname="logo.svg"
   inkscape:version="0.92.4 (5da689c313, 2019-01-14)"
   inkscape:export-filename="C:\Users\Leond\Documents\Programming\circuitapp\images\logo.png"
   inkscape:export-xdpi="768"
   inkscape:export-ydpi="768">
  <metadata
     id="metadata12">
    <rdf:RDF>
      <cc:Work
         rdf:about="">
        <dc:format>image/svg+xml</dc:format>
        <dc:type
           rdf:resource="http://purl.org/dc/dcmitype/StillImage" />
        <dc:title></dc:title>
      </cc:Work>
    </rdf:RDF>
  </metadata>
  <defs
     id="defs10">
    <filter
       style="color-interpolation-filters:sRGB;"
       inkscape:label="Drop Shadow"
       id="filter5208">
      <feFlood
         flood-opacity="0.498039"
         flood-color="rgb(0,0,0)"
         result="flood"
         id="feFlood5198" />
      <feComposite
         in="flood"
         in2="SourceGraphic"
         operator="in"
         result="composite1"
         id="feComposite5200" />
      <feGaussianBlur
         in="composite1"
         stdDeviation="0.5"
         result="blur"
         id="feGaussianBlur5202" />
      <feOffset
         dx="0.2"
         dy="0.2"
         result="offset"
         id="feOffset5204" />
      <feComposite
         in="SourceGraphic"
         in2="offset"
         operator="over"
         result="composite2"
         id="feComposite5206" />
    </filter>
  </defs>
  <sodipodi:namedview
     pagecolor="#000000"
     bordercolor="#666666"
     borderopacity="1"
     objecttolerance="10"
     gridtolerance="10"
     guidetolerance="10"
     inkscape:pageopacity="0"
     inkscape:pageshadow="2"
     inkscape:window-width="1920"
     inkscape:window-height="1027"
     id="namedview8"
     showgrid="false"
     inkscape:zoom="13.906434"
     inkscape:cx="-12.492293"
     inkscape:cy="12.483016"
     inkscape:window-x="1912"
     inkscape:window-y="-8"
     inkscape:window-maximized="1"
     inkscape:current-layer="svg6"
     inkscape:pagecheckerboard="true" />
  <path
     d="m 9.1699997,16.830001 c 1.5600003,1.56 4.1000003,1.56 5.6600003,0 1.56,-1.56 1.56,-4.1 0,-5.660001 z M 18,2.0099994 l -12.0000003,-0.01 c -1.11,0 -2,0.89 -2,2 V 20.000001 c 0,1.11 0.89,2 2,2 H 18 c 1.11,0 2,-0.89 2,-2 V 3.9999994 c 0,-1.11 -0.89,-1.99 -2,-1.99 z m -8,1.99 c 0.55,0 1,0.45 1,1 0,0.55 -0.45,1 -1,1 -0.5500002,0 -1.0000002,-0.45 -1.0000002,-1 0,-0.55 0.45,-1 1.0000002,-1 z m -3.0000003,0 c 0.55,0 1,0.45 1,1 0,0.55 -0.45,1 -1,1 -0.55,0 -1,-0.45 -1,-1 0,-0.55 0.45,-1 1,-1 z M 12,20.000001 c -3.3100003,0 -6.0000003,-2.69 -6.0000003,-6 C 5.9999997,10.69 8.6899998,7.9999994 12,7.9999994 c 3.31,0 6,2.6900006 6,6.0000016 0,3.31 -2.69,6 -6,6 z"
     id="path2"
     inkscape:connector-curvature="0"
     style="filter:url(#filter5208);fill:#ffffff;fill-opacity:1" />
</svg>
